<?xml version="1.0" encoding="utf-8"?>
<!-- Generator: Adobe Illustrator 22.0.0, SVG Export Plug-In . SVG Version: 6.00 Build 0)  -->
<svg version="1.1" id="圖層_1" xmlns="http://www.w3.org/2000/svg" xmlns:xlink="http://www.w3.org/1999/xlink" x="0px" y="0px"
	 viewBox="0 0 430.7 401.7" style="enable-background:new 0 0 430.7 401.7;" xml:space="preserve">
<style type="text/css">
	.st0{fill:#040000;}
</style>
<path class="st0" d="M215.6,157.1c-29.3,0-53.2,23.8-53.2,53.2c0,4.9,4,8.9,8.9,8.9s8.9-4,8.9-8.9c0-19.5,15.9-35.4,35.4-35.4
	c4.9,0,8.9-4,8.9-8.9S220.5,157.1,215.6,157.1z M171.3,367c0,1.7,0.5,3.4,1.5,4.9l13.6,20.4c1.6,2.5,4.4,4,7.4,4h43.7
	c3,0,5.7-1.5,7.4-4l13.6-20.4c1-1.5,1.5-3.2,1.5-4.9l0-23.9h-88.6L171.3,367z M215.6,112.8c-56.6,0-97.4,45.9-97.4,97.4
	c0,24.6,9.1,47,24.1,64.1c9.2,10.5,23.7,32.6,29,51v0h26.6v-0.1c0-2.6-0.4-5.3-1.2-7.8c-3.1-9.9-12.6-35.9-34.4-60.7
	c-11.4-13-17.5-29.4-17.5-46.6c-0.1-40.8,33-70.9,70.8-70.9c39.1,0,70.9,31.8,70.9,70.9c0,17.1-6.2,33.7-17.5,46.6
	c-21.7,24.7-31.2,50.6-34.4,60.6c-0.8,2.6-1.2,5.2-1.2,7.9v0.1h26.6v0c5.4-18.5,19.8-40.5,29-51c15-17.1,24.1-39.5,24.1-64.1
	C313,156.4,269.4,112.8,215.6,112.8z"/>
<path class="st0" d="M355.5,237.7h48.4c7.3,0,13.3-5.9,13.3-13.3v0c0-7.3-5.9-13.3-13.3-13.3h-48.4c-7.3,0-13.3,5.9-13.3,13.3v0
	C342.2,231.8,348.2,237.7,355.5,237.7z"/>
<path class="st0" d="M334.5,123.9l34.2-34.2c5.2-5.2,5.2-13.6,0-18.8l0,0c-5.2-5.2-13.6-5.2-18.8,0l-34.2,34.2
	c-5.2,5.2-5.2,13.6,0,18.8v0C320.9,129.1,329.3,129.1,334.5,123.9z"/>
<path class="st0" d="M27.3,237.7h48.4c7.3,0,13.3-5.9,13.3-13.3v0c0-7.3-5.9-13.3-13.3-13.3H27.3c-7.3,0-13.3,5.9-13.3,13.3v0
	C14,231.8,20,237.7,27.3,237.7z"/>
<path class="st0" d="M63.4,89.7l34.2,34.2c5.2,5.2,13.6,5.2,18.8,0l0,0c5.2-5.2,5.2-13.6,0-18.8L82.2,70.9c-5.2-5.2-13.6-5.2-18.8,0
	l0,0C58.2,76.1,58.2,84.5,63.4,89.7z"/>
<path class="st0" d="M202.8,24.7v48.4c0,7.3,5.9,13.3,13.3,13.3h0c7.3,0,13.3-5.9,13.3-13.3V24.7c0-7.3-5.9-13.3-13.3-13.3h0
	C208.7,11.4,202.8,17.4,202.8,24.7z"/>
<path class="st0" d="M15.8,29.4"/>
</svg>
